<svg xmlns="http://www.w3.org/2000/svg" xmlns:xlink="http://www.w3.org/1999/xlink" width="1080" zoomAndPan="magnify" viewBox="0 0 810 809.999993" height="1080" preserveAspectRatio="xMidYMid meet" version="1.0"><defs><g/></defs><g fill="#fab2b2" fill-opacity="1"><g transform="translate(352.562623, 601.559937)"><g><path d="M 374.625 0 L 258.1875 0 L 166.46875 -71.46875 L 113.453125 -35.28125 L 113.453125 0 L 23.828125 0 L 23.828125 -213.671875 L 113.453125 -213.671875 L 113.453125 -114.796875 L 257.296875 -213.671875 L 374.625 -213.671875 L 221.5625 -109.140625 Z M 374.625 0 "/></g></g></g><g fill="#000000" fill-opacity="1"><g transform="translate(115.301232, 391.4013)"><g><path d="M 351.203125 0 L 262.3125 0 L 242.640625 -34.25 L 110.75 -34.25 L 91.078125 0 L 2.1875 0 L 135.96875 -208.96875 L 217.421875 -208.96875 Z M 213.0625 -85.984375 L 176.765625 -149.375 L 140.34375 -85.984375 Z M 213.0625 -85.984375 "/></g></g></g><g fill="#dc93ff" fill-opacity="1"><g transform="translate(115.381593, 601.126447)"><g><path d="M 264.953125 0 L 12 0 L 12 -53.234375 C 12 -65.828125 15.644531 -76.195312 22.9375 -84.34375 C 30.238281 -92.488281 39.660156 -99.085938 51.203125 -104.140625 C 62.753906 -109.191406 75.175781 -113.210938 88.46875 -116.203125 C 101.757812 -119.203125 114.601562 -121.703125 127 -123.703125 C 143.394531 -126.304688 156.441406 -129.207031 166.140625 -132.40625 C 173.535156 -134.800781 177.234375 -138.148438 177.234375 -142.453125 C 177.234375 -143.753906 176.882812 -145.15625 176.1875 -146.65625 C 169.289062 -156.84375 157.992188 -161.9375 142.296875 -161.9375 C 126.804688 -161.9375 115.507812 -156.84375 108.40625 -146.65625 L 12.59375 -146.65625 C 15.789062 -160.945312 22.035156 -173.566406 31.328125 -184.515625 C 40.628906 -195.460938 54.175781 -204.054688 71.96875 -210.296875 C 89.769531 -216.546875 113.210938 -219.671875 142.296875 -219.671875 C 171.390625 -219.671875 194.832031 -216.546875 212.625 -210.296875 C 230.414062 -204.054688 243.957031 -195.460938 253.25 -184.515625 C 262.550781 -173.566406 268.800781 -160.945312 272 -146.65625 C 272.5 -143.25 272.75 -140.046875 272.75 -137.046875 C 272.75 -122.648438 267.25 -110.753906 256.25 -101.359375 C 245.257812 -91.960938 230.34375 -84.890625 211.5 -80.140625 C 192.65625 -75.398438 174.238281 -71.78125 156.25 -69.28125 C 147.144531 -67.976562 138.941406 -66.601562 131.640625 -65.15625 C 124.347656 -63.707031 118.550781 -62.054688 114.25 -60.203125 C 109.957031 -58.359375 107.8125 -56.035156 107.8125 -53.234375 L 264.953125 -53.234375 Z M 264.953125 0 "/></g></g></g></svg>