<svg xmlns="http://www.w3.org/2000/svg" xmlns:xlink="http://www.w3.org/1999/xlink" width="1080" zoomAndPan="magnify" viewBox="0 0 810 809.999993" height="1080" preserveAspectRatio="xMidYMid meet" version="1.0"><defs><g/></defs><g fill="#fab2b2" fill-opacity="1"><g transform="translate(326.020885, 633.269885)"><g><path d="M 460.6875 0 L 317.5 0 L 204.71875 -87.890625 L 139.53125 -43.390625 L 139.53125 0 L 29.296875 0 L 29.296875 -262.75 L 139.53125 -262.75 L 139.53125 -141.171875 L 316.40625 -262.75 L 460.6875 -262.75 L 272.46875 -134.21875 Z M 460.6875 0 "/></g></g></g><g fill="#000000" fill-opacity="1"><g transform="translate(25.490058, 373.248432)"><g><path d="M 441.28125 0 L 329.59375 0 L 304.875 -43.03125 L 139.15625 -43.03125 L 114.4375 0 L 2.75 0 L 170.84375 -262.578125 L 273.1875 -262.578125 Z M 267.703125 -108.03125 L 222.109375 -187.6875 L 176.328125 -108.03125 Z M 267.703125 -108.03125 "/></g></g></g><g fill="#dc93ff" fill-opacity="1"><g transform="translate(32.825995, 631.019871)"><g><path d="M 323.546875 0 L 14.65625 0 L 14.65625 -65 C 14.65625 -80.382812 19.109375 -93.050781 28.015625 -103 C 36.921875 -112.945312 48.421875 -121 62.515625 -127.15625 C 76.617188 -133.320312 91.789062 -138.238281 108.03125 -141.90625 C 124.269531 -145.570312 139.957031 -148.625 155.09375 -151.0625 C 175.113281 -154.238281 191.039062 -157.78125 202.875 -161.6875 C 211.914062 -164.613281 216.4375 -168.703125 216.4375 -173.953125 C 216.4375 -175.535156 216.007812 -177.242188 215.15625 -179.078125 C 206.726562 -191.523438 192.929688 -197.75 173.765625 -197.75 C 154.847656 -197.75 141.054688 -191.523438 132.390625 -179.078125 L 15.375 -179.078125 C 19.28125 -196.535156 26.910156 -211.945312 38.265625 -225.3125 C 49.617188 -238.675781 66.160156 -249.171875 87.890625 -256.796875 C 109.617188 -264.429688 138.242188 -268.25 173.765625 -268.25 C 209.285156 -268.25 237.910156 -264.429688 259.640625 -256.796875 C 281.367188 -249.171875 297.910156 -238.675781 309.265625 -225.3125 C 320.617188 -211.945312 328.25 -196.535156 332.15625 -179.078125 C 332.757812 -174.929688 333.0625 -171.023438 333.0625 -167.359375 C 333.0625 -149.773438 326.347656 -135.242188 312.921875 -123.765625 C 299.492188 -112.296875 281.273438 -103.660156 258.265625 -97.859375 C 235.253906 -92.066406 212.765625 -87.644531 190.796875 -84.59375 C 179.691406 -83.007812 169.679688 -81.332031 160.765625 -79.5625 C 151.859375 -77.789062 144.78125 -75.773438 139.53125 -73.515625 C 134.28125 -71.253906 131.65625 -68.414062 131.65625 -65 L 323.546875 -65 Z M 323.546875 0 "/></g></g></g></svg>