<svg xmlns="http://www.w3.org/2000/svg" xmlns:xlink="http://www.w3.org/1999/xlink" width="1080" zoomAndPan="magnify" viewBox="0 0 810 809.999993" height="1080" preserveAspectRatio="xMidYMid meet" version="1.0"><path fill="#dc93ff" d="M 500.632812 384.949219 C 500.632812 386.839844 500.585938 388.734375 500.492188 390.625 C 500.402344 392.515625 500.261719 394.402344 500.074219 396.285156 C 499.890625 398.171875 499.660156 400.050781 499.382812 401.921875 C 499.101562 403.792969 498.78125 405.660156 498.410156 407.515625 C 498.039062 409.375 497.625 411.21875 497.167969 413.058594 C 496.707031 414.894531 496.203125 416.71875 495.652344 418.527344 C 495.101562 420.339844 494.507812 422.136719 493.871094 423.921875 C 493.234375 425.703125 492.550781 427.46875 491.828125 429.21875 C 491.101562 430.96875 490.335938 432.699219 489.527344 434.410156 C 488.714844 436.121094 487.867188 437.8125 486.972656 439.480469 C 486.082031 441.152344 485.148438 442.796875 484.175781 444.421875 C 483.199219 446.046875 482.1875 447.644531 481.136719 449.21875 C 480.085938 450.792969 478.996094 452.339844 477.867188 453.859375 C 476.738281 455.382812 475.574219 456.875 474.375 458.335938 C 473.171875 459.800781 471.9375 461.234375 470.664062 462.636719 C 469.394531 464.039062 468.089844 465.410156 466.75 466.75 C 465.410156 468.089844 464.039062 469.394531 462.636719 470.664062 C 461.234375 471.9375 459.800781 473.171875 458.335938 474.375 C 456.875 475.574219 455.382812 476.738281 453.859375 477.867188 C 452.339844 478.996094 450.792969 480.085938 449.21875 481.136719 C 447.644531 482.1875 446.046875 483.199219 444.421875 484.175781 C 442.796875 485.148438 441.152344 486.082031 439.480469 486.972656 C 437.8125 487.867188 436.121094 488.714844 434.410156 489.527344 C 432.699219 490.335938 430.96875 491.101562 429.21875 491.828125 C 427.46875 492.550781 425.703125 493.234375 423.921875 493.871094 C 422.136719 494.507812 420.339844 495.101562 418.527344 495.652344 C 416.71875 496.203125 414.894531 496.707031 413.058594 497.167969 C 411.21875 497.625 409.375 498.039062 407.515625 498.410156 C 405.660156 498.78125 403.792969 499.101562 401.921875 499.382812 C 400.050781 499.660156 398.171875 499.890625 396.285156 500.074219 C 394.402344 500.261719 392.515625 500.402344 390.625 500.492188 C 388.734375 500.585938 386.839844 500.632812 384.949219 500.632812 C 383.054688 500.632812 381.160156 500.585938 379.269531 500.492188 C 377.378906 500.402344 375.492188 500.261719 373.609375 500.074219 C 371.722656 499.890625 369.84375 499.660156 367.972656 499.382812 C 366.101562 499.101562 364.234375 498.78125 362.378906 498.410156 C 360.519531 498.039062 358.675781 497.625 356.839844 497.167969 C 355 496.707031 353.175781 496.203125 351.367188 495.652344 C 349.554688 495.101562 347.757812 494.507812 345.972656 493.871094 C 344.191406 493.234375 342.425781 492.550781 340.675781 491.828125 C 338.925781 491.101562 337.195312 490.335938 335.484375 489.527344 C 333.773438 488.714844 332.082031 487.867188 330.414062 486.972656 C 328.742188 486.082031 327.097656 485.148438 325.472656 484.175781 C 323.847656 483.199219 322.25 482.1875 320.675781 481.136719 C 319.101562 480.085938 317.554688 478.996094 316.035156 477.867188 C 314.511719 476.738281 313.019531 475.574219 311.558594 474.375 C 310.09375 473.171875 308.660156 471.9375 307.257812 470.664062 C 305.855469 469.394531 304.484375 468.089844 303.144531 466.75 C 301.804688 465.410156 300.5 464.039062 299.230469 462.636719 C 297.957031 461.234375 296.722656 459.800781 295.519531 458.335938 C 294.320312 456.875 293.15625 455.382812 292.027344 453.859375 C 290.898438 452.339844 289.808594 450.792969 288.757812 449.21875 C 287.707031 447.644531 286.695312 446.046875 285.71875 444.421875 C 284.746094 442.796875 283.8125 441.152344 282.921875 439.480469 C 282.027344 437.8125 281.179688 436.121094 280.367188 434.410156 C 279.558594 432.699219 278.792969 430.96875 278.066406 429.21875 C 277.34375 427.46875 276.660156 425.703125 276.023438 423.921875 C 275.386719 422.136719 274.792969 420.339844 274.242188 418.527344 C 273.695312 416.71875 273.1875 414.894531 272.730469 413.058594 C 272.269531 411.21875 271.855469 409.375 271.484375 407.515625 C 271.113281 405.660156 270.792969 403.792969 270.515625 401.921875 C 270.234375 400.050781 270.003906 398.171875 269.820312 396.285156 C 269.632812 394.402344 269.492188 392.515625 269.402344 390.625 C 269.308594 388.734375 269.261719 386.839844 269.261719 384.949219 C 269.261719 383.054688 269.308594 381.160156 269.402344 379.269531 C 269.492188 377.378906 269.632812 375.492188 269.820312 373.609375 C 270.003906 371.722656 270.234375 369.84375 270.515625 367.972656 C 270.792969 366.101562 271.113281 364.234375 271.484375 362.378906 C 271.855469 360.519531 272.269531 358.675781 272.730469 356.839844 C 273.1875 355 273.695312 353.175781 274.242188 351.367188 C 274.792969 349.554688 275.386719 347.757812 276.023438 345.972656 C 276.660156 344.191406 277.34375 342.425781 278.066406 340.675781 C 278.792969 338.925781 279.558594 337.195312 280.367188 335.484375 C 281.179688 333.773438 282.027344 332.082031 282.921875 330.414062 C 283.8125 328.742188 284.746094 327.097656 285.71875 325.472656 C 286.695312 323.847656 287.707031 322.25 288.757812 320.675781 C 289.808594 319.101562 290.898438 317.554688 292.027344 316.035156 C 293.15625 314.511719 294.320312 313.019531 295.519531 311.558594 C 296.722656 310.09375 297.957031 308.660156 299.230469 307.257812 C 300.5 305.855469 301.804688 304.484375 303.144531 303.144531 C 304.484375 301.804688 305.855469 300.5 307.257812 299.230469 C 308.660156 297.957031 310.09375 296.722656 311.558594 295.519531 C 313.019531 294.320312 314.511719 293.15625 316.035156 292.027344 C 317.554688 290.898438 319.101562 289.808594 320.675781 288.757812 C 322.25 287.707031 323.847656 286.695312 325.472656 285.71875 C 327.097656 284.746094 328.742188 283.8125 330.414062 282.921875 C 332.082031 282.027344 333.773438 281.179688 335.484375 280.367188 C 337.195312 279.558594 338.925781 278.792969 340.675781 278.066406 C 342.425781 277.34375 344.191406 276.660156 345.972656 276.023438 C 347.757812 275.386719 349.554688 274.792969 351.367188 274.242188 C 353.175781 273.695312 355 273.1875 356.839844 272.730469 C 358.675781 272.269531 360.519531 271.855469 362.378906 271.484375 C 364.234375 271.113281 366.101562 270.792969 367.972656 270.515625 C 369.84375 270.234375 371.722656 270.003906 373.609375 269.820312 C 375.492188 269.632812 377.378906 269.492188 379.269531 269.402344 C 381.160156 269.308594 383.054688 269.261719 384.949219 269.261719 C 386.839844 269.261719 388.734375 269.308594 390.625 269.402344 C 392.515625 269.492188 394.402344 269.632812 396.285156 269.820312 C 398.171875 270.003906 400.050781 270.234375 401.921875 270.515625 C 403.792969 270.792969 405.660156 271.113281 407.515625 271.484375 C 409.375 271.855469 411.21875 272.269531 413.058594 272.730469 C 414.894531 273.1875 416.71875 273.695312 418.527344 274.242188 C 420.339844 274.792969 422.136719 275.386719 423.921875 276.023438 C 425.703125 276.660156 427.46875 277.34375 429.21875 278.066406 C 430.96875 278.792969 432.699219 279.558594 434.410156 280.367188 C 436.121094 281.179688 437.8125 282.027344 439.480469 282.921875 C 441.152344 283.8125 442.796875 284.746094 444.421875 285.71875 C 446.046875 286.695312 447.644531 287.707031 449.21875 288.757812 C 450.792969 289.808594 452.339844 290.898438 453.859375 292.027344 C 455.382812 293.15625 456.875 294.320312 458.335938 295.519531 C 459.800781 296.722656 461.234375 297.957031 462.636719 299.230469 C 464.039062 300.5 465.410156 301.804688 466.75 303.144531 C 468.089844 304.484375 469.394531 305.855469 470.664062 307.257812 C 471.9375 308.660156 473.171875 310.09375 474.375 311.558594 C 475.574219 313.019531 476.738281 314.511719 477.867188 316.035156 C 478.996094 317.554688 480.085938 319.101562 481.136719 320.675781 C 482.1875 322.25 483.199219 323.847656 484.175781 325.472656 C 485.148438 327.097656 486.082031 328.742188 486.972656 330.414062 C 487.867188 332.082031 488.714844 333.773438 489.527344 335.484375 C 490.335938 337.195312 491.101562 338.925781 491.828125 340.675781 C 492.550781 342.425781 493.234375 344.191406 493.871094 345.972656 C 494.507812 347.757812 495.101562 349.554688 495.652344 351.367188 C 496.203125 353.175781 496.707031 355 497.167969 356.839844 C 497.625 358.675781 498.039062 360.519531 498.410156 362.378906 C 498.78125 364.234375 499.101562 366.101562 499.382812 367.972656 C 499.660156 369.84375 499.890625 371.722656 500.074219 373.609375 C 500.261719 375.492188 500.402344 377.378906 500.492188 379.269531 C 500.585938 381.160156 500.632812 383.054688 500.632812 384.949219 Z M 500.632812 384.949219 " fill-opacity="1" fill-rule="nonzero"/><path fill="#dc93ff" d="M 405 81 C 226.058594 81 81 226.058594 81 405 C 81 583.941406 226.058594 729 405 729 C 583.941406 729 729 583.941406 729 405 C 729 226.058594 583.941406 81 405 81 Z M 593.402344 593.402344 C 581.355469 605.449219 561.824219 605.449219 549.773438 593.402344 L 486.65625 530.285156 C 457.925781 550.425781 422.960938 562.277344 385.222656 562.332031 C 288.582031 562.476562 209.148438 484.503906 207.585938 387.882812 C 205.964844 287.589844 287.589844 205.964844 387.882812 207.585938 C 484.503906 209.144531 562.476562 288.582031 562.332031 385.21875 C 562.273438 422.957031 550.425781 457.925781 530.285156 486.65625 L 593.402344 549.773438 C 605.449219 561.820312 605.449219 581.355469 593.402344 593.402344 Z M 593.402344 593.402344 " fill-opacity="1" fill-rule="nonzero"/></svg>